<svg width="39" height="39" viewBox="0 0 39 39" xmlns="http://www.w3.org/2000/svg"><title>globe</title><path d="M19.667.038C9.162.038.615 8.584.615 19.09s8.547 19.052 19.052 19.052c10.506 0 19.053-8.545 19.053-19.052C38.72 8.584 30.173.038 19.667.038zM37.073 19.09c0 .333-.03.659-.05.988-.122-.309-.308-.712-.352-.886-.065-.264-.459-1.182-.459-1.182s-.394-.525-.656-.656c-.261-.132-.459-.46-.919-.721-.46-.264-.655-.394-1.047-.394-.396 0-.787-.526-1.248-.788-.46-.261-.525-.13-.525-.13s.525.786.525.982c0 .197.589.525 1.182.393 0 0 .393.722.589.919.196.196-.066.394-.459.656-.394.26-.328.196-.527.393-.196.196-.851.527-1.049.656-.196.13-.983.524-1.376.13-.192-.19-.133-.589-.262-.852-.132-.263-1.509-2.296-2.165-3.213-.114-.162-.394-.66-.589-.787-.196-.133.46-.133.46-.133s0-.46-.066-.787c-.067-.328.066-.786.066-.786s-.656.392-.855.524c-.195.132-.393-.26-.654-.59-.262-.327-.526-.723-.59-1.05-.066-.327.328-.46.328-.46l.589-.326s.722-.13 1.182-.066c.458.066 1.18.132 1.18.132s.196-.46-.067-.656c-.26-.197-.854-.525-1.116-.459-.26.065.13-.328.457-.59l-.726-.132s-.66.328-.858.394c-.196.064-.538.196-.801.524-.261.328.105.787-.158.919-.26.132-.438.196-.636.26-.196.067-.82 0-.82 0-.678 0-.243.62-.067.839l-.525-.64-.388-.918s-.56-.392-.822-.523c-.262-.132-1.07-.59-1.07-.59l.056.59.76.77.067.017.395.524-.872.066v-.519c-.824-.199-.608-.403-.701-.467-.195-.13-.651-.46-.651-.46s-.772.132-.97.198c-.197.066-.252.262-.644.393-.395.132-.573.328-.703.524-.13.197-.558.787-.818 1.05-.263.263-.75.196-.947.196-.197 0-1.144-.263-1.144-.263v-1.112s.128-.624.063-.82l.574-.097.96-.198.28-.197.404-.525s-.453-.328-.127-.786c.158-.221.724-.263.986-.46.261-.195.658-.327.658-.327s.46-.393.918-.853c0 0 .328-.198.721-.33 0 0 1.116.985 1.314.985.198 0 .919-.458.919-.458s.196-.59.131-.787c-.066-.197-.394-.853-.394-.853s-.196.328-.392.59c-.197.263-.329.59-.329.59s-.918-.062-.983-.259c-.067-.197-.196-.521-.263-.716-.063-.198-.59-.191-.98-.06-.396.132.063-.707.063-.707s.395-.495.656-.495c.26 0 .854-.336 1.113-.4.264-.067 1.053-.366 1.379-.366.328 0 .722.14.92.14h.983l1.376-.11s1.182.438.786.701c0 0 .462.284.658.48.184.186.66-.17.933-.322 4.907 3.08 8.189 8.527 8.189 14.739zM5.777 8.826c0 .262-.357.326 0 .985.458.852.065 1.246.065 1.246s-1.116.787-1.313.919c-.196.131-.72.852-.394.655.328-.197.721-.393.394.131-.328.526-.918 1.378-1.049 1.707-.13.33-.786 1.115-.786 1.509 0 .394-.263 1.182-.197 1.51.045.229-.1.903-.215 1.18a17.267 17.267 0 0 1 3.38-9.866.531.531 0 0 1 .115.024zm2.108-2.515a17.435 17.435 0 0 1 5.558-3.46c-.205.262-.452.531-.452.531s-.459-.001-1.313.919c-.85.918-.654.656-.85.917-.197.26-.133.328-.593.658-.457.326-.654.72-.654.72l-.723.263-.589-.263s-.527.198-.46-.066c.018-.07.046-.142.076-.219zm7.862 1.53l-.261-.392.26-.59.633.252v-1.17l.603-.328.502.721.772.854-.512.393-1.367.262v-.695l-.63.694zm8.528 6.167c.154-.121.655.196.655.196s1.64.328 1.902.525c.264.197.722.329.854.527.132.196.589.786.654.983.067.196.395.92.46 1.18.067.263.263.92.46 1.247.196.33 1.312 1.771 1.705 2.428l1.183-.197s-.133.59-.263.787c-.13.196-.525.72-.721.983-.198.262-.459.656-.853.983-.393.327-.395.655-.59.919-.197.262-.46.852-.46.852s.132 1.313.196 1.575c.065.262-.458.983-.458.983l-.592.592-.791 1.047.065.984s-.598.46-.927.722c-.325.26-.274.458-.537.722-.26.26-1.287.72-1.549.787-.262.066-1.71.262-1.71.262v-.59l-.029-.655s-.199-.787-.396-1.05c-.198-.262-.112-.657-.44-.984-.328-.328-.45-.589-.515-.788-.066-.196.071-.785.071-.785s.265-.722.395-.985c.132-.262.002-.655-.13-.918-.132-.264-.195-.92-.195-1.115 0-.196-.527-.526-.724-.722-.196-.197-.13-.46-.13-.72 0-.265-.196-.854-.132-1.314.066-.458-.589-.131-.983 0-.394.132-.655-.131-.655-.525s-.72-.065-1.18.196c-.462.262-.985.262-1.512.46-.523.196-.784-.197-.784-.197s-.461-.392-.787-.59c-.33-.196-.658-.589-.921-.917-.261-.33-.919-1.314-.982-1.705-.066-.396 0-.66 0-1.118 0-.458 0-.72.065-1.049.066-.328.262-.722.46-1.05.196-.328.918-.721 1.113-.853.197-.13.656-.523.656-.786s.264-.393.393-.657c.133-.262.592-.917 1.182-.655 0 0 .523-.064.72-.13.196-.066.72-.261.98-.393.262-.132.916-.193.916-.193s.516.205.713.205c.196 0 .836-.114.836-.114s.296.95.296 1.148c0 .198.196.393.526.525.324.133 1.834.463 2.49-.063zm7.544 12.858c0 .196-.066.722-.132.984-.069.262-.198.722-.262.982-.066.263-.394.788-.59.92-.196.131-.525.525-.72.59-.197.066-.33-.46-.264-.722.067-.262.394-.983.394-.983s.066-.393.13-.657c.068-.26.855-.589.855-.589l.525-.984c-.002-.001.064.264.064.459zm-29.11-3.908c.086.021.207.083.377.235.248.215.394.325.723.458.326.134.458.327.852.525.394.198.264.067.787.656.526.59.46.59.59.919.13.33.328.655.46.854.132.196.525.327.721.458.196.132.525.263.72.263.199 0 .789.59 1.117.654.328.068.328.724.328.724l-.328.917-.264.983.264.787s-.395.33-.655.33c-.242 0-.324.153-.589.08a17.39 17.39 0 0 1-5.102-8.843z" fill="#515151" fill-rule="evenodd"/></svg>