<?xml version="1.0" encoding="UTF-8"?>
<svg width="39px" height="39px" viewBox="0 0 39 39" version="1.1" xmlns="http://www.w3.org/2000/svg" xmlns:xlink="http://www.w3.org/1999/xlink">
    <!-- Generator: Sketch 42 (36781) - http://www.bohemiancoding.com/sketch -->
    <title>globe</title>
    <desc>Created with Sketch.</desc>
    <defs></defs>
    <g id="Page-1" stroke="none" stroke-width="1" fill="none" fill-rule="evenodd">
        <g id="Desktop-HD" transform="translate(-701.000000, -41.000000)" fill="#515151">
            <g id="1483423099_globe-01" transform="translate(701.000000, 41.000000)">
                <g id="Layer_1">
                    <g id="globe-2">
                        <path d="M19.6667586,0.0376551724 C9.16231034,0.0376551724 0.614586207,8.58403448 0.614586207,19.0898276 C0.614586207,29.5956207 9.16231034,38.142 19.6667586,38.142 C30.1725517,38.142 38.7202759,29.5969655 38.7202759,19.0898276 C38.7202759,8.58403448 30.1725517,0.0376551724 19.6667586,0.0376551724 Z M37.0728621,19.0898276 C37.0728621,19.4233448 37.0432759,19.7487931 37.0231034,20.0782759 C36.9007241,19.7689655 36.7151379,19.3655172 36.6707586,19.1920345 C36.6062069,18.9284483 36.2121724,18.009931 36.2121724,18.009931 C36.2121724,18.009931 35.8181379,17.4854483 35.5558966,17.3536552 C35.295,17.2218621 35.0973103,16.8937241 34.6373793,16.6328276 C34.1774483,16.3692414 33.9824483,16.2387931 33.5897586,16.2387931 C33.1943793,16.2387931 32.8030345,15.7129655 32.3417586,15.4507241 C31.8818276,15.1898276 31.8172759,15.3202759 31.8172759,15.3202759 C31.8172759,15.3202759 32.3417586,16.107 32.3417586,16.3033448 C32.3417586,16.4996897 32.9307931,16.8278276 33.5238621,16.6960345 C33.5238621,16.6960345 33.9165517,17.4182069 34.1128966,17.6145517 C34.3092414,17.8108966 34.047,18.0085862 33.6543103,18.2708276 C33.2602759,18.5317241 33.3261724,18.4671724 33.1271379,18.6635172 C32.9307931,18.8598621 32.2758621,19.1906897 32.0781724,19.3197931 C31.8818276,19.4502414 31.0951034,19.8442759 30.7024138,19.4502414 C30.5101034,19.2606207 30.5692759,18.8612069 30.4401724,18.5976207 C30.3083793,18.3353793 28.9312759,16.302 28.275,15.3848276 C28.1606897,15.2234483 27.8809655,14.7258621 27.6859655,14.5981034 C27.4896207,14.4649655 28.1458966,14.4649655 28.1458966,14.4649655 C28.1458966,14.4649655 28.1458966,14.0050345 28.08,13.6782414 C28.0127586,13.3501034 28.1458966,12.8915172 28.1458966,12.8915172 C28.1458966,12.8915172 27.4896207,13.2842069 27.2905862,13.416 C27.0955862,13.5477931 26.8978966,13.1551034 26.637,12.8256207 C26.3747586,12.4988276 26.1111724,12.1034483 26.0466207,11.7753103 C25.9807241,11.4485172 26.3747586,11.3167241 26.3747586,11.3167241 L26.9637931,10.989931 C26.9637931,10.989931 27.6859655,10.8594828 28.1458966,10.9240345 C28.6044828,10.989931 29.3253103,11.0558276 29.3253103,11.0558276 C29.3253103,11.0558276 29.5216552,10.5958966 29.2594138,10.3995517 C28.9985172,10.2032069 28.4054483,9.87506897 28.1432069,9.94096552 C27.8823103,10.0055172 28.2736552,9.61282759 28.6004483,9.35058621 L27.8742414,9.2187931 C27.8742414,9.2187931 27.213931,9.54693103 27.0162414,9.61282759 C26.8198966,9.67737931 26.4783103,9.80917241 26.2147241,10.1373103 C25.9538276,10.4654483 26.3196207,10.9240345 26.0573793,11.0558276 C25.7964828,11.1876207 25.6189655,11.2521724 25.4212759,11.3167241 C25.224931,11.3826207 24.600931,11.3167241 24.600931,11.3167241 C23.9231379,11.3167241 24.3575172,11.9353448 24.5336897,12.1545517 L24.0092069,11.5144138 L23.6205517,10.5972414 C23.6205517,10.5972414 23.0611034,10.2045517 22.7988621,10.0741034 C22.5366207,9.94231034 21.7283793,9.48372414 21.7283793,9.48372414 L21.7848621,10.0741034 L22.5446897,10.8433448 L22.611931,10.8608276 L23.0073103,11.3853103 L22.1345172,11.4512069 L22.1345172,10.9321034 C21.3114828,10.733069 21.5266552,10.5286552 21.4338621,10.4654483 C21.2388621,10.335 20.7829655,10.0055172 20.7829655,10.0055172 C20.7829655,10.0055172 20.0110345,10.1373103 19.8133448,10.2032069 C19.6156552,10.2691034 19.5605172,10.4654483 19.1691724,10.5958966 C18.7737931,10.7276897 18.5962759,10.9240345 18.4658276,11.1203793 C18.3353793,11.3167241 17.9077241,11.9071034 17.6481724,12.1693448 C17.3845862,12.432931 16.8977586,12.3656897 16.7014138,12.3656897 C16.5037241,12.3656897 15.5569655,12.1034483 15.5569655,12.1034483 L15.5569655,10.9912759 C15.5569655,10.9912759 15.6847241,10.3672759 15.6201724,10.170931 L16.1944138,10.0741034 L17.1532759,9.87641379 L17.4343448,9.67872414 L17.8377931,9.15424138 C17.8377931,9.15424138 17.3845862,8.82610345 17.7113793,8.36751724 C17.8687241,8.14696552 18.4348966,8.10527586 18.6971379,7.90893103 C18.9580345,7.71258621 19.3547586,7.5807931 19.3547586,7.5807931 C19.3547586,7.5807931 19.8146897,7.18810345 20.2732759,6.72817241 C20.2732759,6.72817241 20.6014138,6.53048276 20.9941034,6.39868966 C20.9941034,6.39868966 22.1103103,7.38310345 22.308,7.38310345 C22.5056897,7.38310345 23.2265172,6.92451724 23.2265172,6.92451724 C23.2265172,6.92451724 23.4228621,6.33548276 23.3583103,6.1377931 C23.2924138,5.94144828 22.9642759,5.28517241 22.9642759,5.28517241 C22.9642759,5.28517241 22.767931,5.61331034 22.5715862,5.87555172 C22.3752414,6.1377931 22.2434483,6.46593103 22.2434483,6.46593103 C22.2434483,6.46593103 21.324931,6.40272414 21.2603793,6.20637931 C21.1931379,6.00868966 21.0640345,5.68458621 20.9967931,5.48958621 C20.9335862,5.29189655 20.4077586,5.29862069 20.0164138,5.43041379 C19.6210345,5.5622069 20.0796207,4.72303448 20.0796207,4.72303448 C20.0796207,4.72303448 20.475,4.22813793 20.7358966,4.22813793 C20.9967931,4.22813793 21.5898621,3.89193103 21.8494138,3.82737931 C22.113,3.76148276 22.9024138,3.46158621 23.2278621,3.46158621 C23.556,3.46158621 23.9500345,3.6027931 24.1477241,3.6027931 L25.1307931,3.6027931 L26.5065517,3.49251724 C26.5065517,3.49251724 27.6886552,3.92958621 27.2932759,4.19317241 C27.2932759,4.19317241 27.7545517,4.47693103 27.9508966,4.67327586 C28.1351379,4.85886207 28.6112069,4.50248276 28.8842069,4.35051724 C33.7914828,7.43017241 37.0728621,12.878069 37.0728621,19.0898276 Z M5.77737931,8.82610345 C5.77737931,9.08834483 5.41965517,9.15155172 5.77737931,9.81051724 C6.23462069,10.6631379 5.84193103,11.0571724 5.84193103,11.0571724 C5.84193103,11.0571724 4.72572414,11.8438966 4.52937931,11.9756897 C4.33303448,12.1074828 3.80855172,12.8283103 4.13534483,12.6306207 C4.46348276,12.4342759 4.85617241,12.237931 4.52937931,12.7624138 C4.20124138,13.2882414 3.61086207,14.1395172 3.48041379,14.469 C3.34996552,14.7984828 2.69368966,15.5838621 2.69368966,15.9778966 C2.69368966,16.371931 2.43144828,17.16 2.49734483,17.4881379 C2.54172414,17.7167586 2.39648276,18.3905172 2.28217241,18.6675517 C2.37093103,14.9800345 3.6122069,11.5816552 5.66172414,8.80189655 C5.72896552,8.80862069 5.77737931,8.82610345 5.77737931,8.82610345 Z M7.88472414,6.31127586 C9.48910345,4.83062069 11.3691724,3.64986207 13.4428966,2.85103448 C13.2384828,3.11327586 12.9910345,3.38224138 12.9910345,3.38224138 C12.9910345,3.38224138 12.5324483,3.38089655 11.6784828,4.30075862 C10.8272069,5.21927586 11.0235517,4.95703448 10.8272069,5.21793103 C10.6308621,5.47882759 10.6954138,5.54606897 10.2354828,5.87555172 C9.77824138,6.20234483 9.58055172,6.59637931 9.58055172,6.59637931 L8.85837931,6.85862069 L8.26934483,6.59637931 C8.26934483,6.59637931 7.74217241,6.79406897 7.80806897,6.53048276 C7.82689655,6.46055172 7.85513793,6.38793103 7.88472414,6.31127586 Z M15.7465862,7.84168966 L15.4856897,7.449 L15.7465862,6.85862069 L16.3786552,7.11144828 L16.3786552,5.94010345 L16.9824828,5.61331034 L17.4841034,6.33413793 L18.2560345,7.18810345 L17.7436552,7.5807931 L16.3773103,7.84303448 L16.3773103,7.14775862 L15.7465862,7.84168966 Z M24.2754828,14.0077241 C24.4287931,13.8866897 24.9304138,14.204069 24.9304138,14.204069 C24.9304138,14.204069 26.5697586,14.5322069 26.832,14.7285517 C27.0955862,14.9262414 27.5541724,15.0580345 27.6859655,15.2557241 C27.8177586,15.452069 28.275,16.0424483 28.3395517,16.2387931 C28.4067931,16.4351379 28.734931,17.1586552 28.8008276,17.4195517 C28.8667241,17.6817931 29.063069,18.338069 29.2594138,18.6662069 C29.4557586,18.9956897 30.5719655,20.4373448 30.9646552,21.0936207 L32.1481034,20.8972759 C32.1481034,20.8972759 32.0149655,21.4863103 31.8845172,21.684 C31.754069,21.8803448 31.3600345,22.4048276 31.1636897,22.667069 C30.966,22.9293103 30.7051034,23.3233448 30.311069,23.6501379 C29.9183793,23.976931 29.9156897,24.305069 29.7206897,24.5686552 C29.5243448,24.8308966 29.2607586,25.4212759 29.2607586,25.4212759 C29.2607586,25.4212759 29.3925517,26.7338276 29.4571034,26.996069 C29.5216552,27.2583103 28.9985172,27.9791379 28.9985172,27.9791379 L28.4067931,28.5708621 L27.6160345,29.6184828 L27.6805862,30.6015517 C27.6805862,30.6015517 27.0834828,31.0628276 26.754,31.3237241 C26.4285517,31.5846207 26.4796552,31.7823103 26.2174138,32.0458966 C25.9565172,32.3067931 24.9304138,32.7667241 24.6681724,32.8326207 C24.405931,32.8985172 22.9588966,33.0948621 22.9588966,33.0948621 L22.9588966,32.5058276 L22.9293103,31.8495517 C22.9293103,31.8495517 22.7302759,31.0628276 22.5325862,30.8005862 C22.3348966,30.5383448 22.4209655,30.1429655 22.0928276,29.8161724 C21.7646897,29.4880345 21.6436552,29.2271379 21.5777586,29.0281034 C21.5118621,28.8317586 21.6490345,28.2427241 21.6490345,28.2427241 C21.6490345,28.2427241 21.9139655,27.5205517 22.0444138,27.2583103 C22.1762069,26.996069 22.0457586,26.6033793 21.9139655,26.3397931 C21.7821724,26.0762069 21.7189655,25.419931 21.7189655,25.224931 C21.7189655,25.0285862 21.1917931,24.6991034 20.9954483,24.5027586 C20.7991034,24.3064138 20.865,24.0428276 20.865,23.7832759 C20.865,23.5183448 20.6686552,22.9293103 20.7332069,22.4693793 C20.7991034,22.0107931 20.1441724,22.3375862 19.7501379,22.4693793 C19.3561034,22.6011724 19.0952069,22.3375862 19.0952069,21.9435517 C19.0952069,21.5495172 18.3743793,21.879 17.9144483,22.1398966 C17.4531724,22.4021379 16.9300345,22.4021379 16.4028621,22.5998276 C15.8797241,22.7961724 15.6188276,22.4034828 15.6188276,22.4034828 C15.6188276,22.4034828 15.1575517,22.0107931 14.8321034,21.8131034 C14.5026207,21.6167586 14.1744828,21.224069 13.9108966,20.895931 C13.65,20.5664483 12.9923793,19.5820345 12.9291724,19.1906897 C12.8632759,18.7953103 12.9291724,18.5317241 12.9291724,18.0731379 C12.9291724,17.6145517 12.9291724,17.3523103 12.9937241,17.0241724 C13.0596207,16.6960345 13.2559655,16.302 13.4536552,15.9738621 C13.65,15.6457241 14.3721724,15.2530345 14.5671724,15.1212414 C14.7635172,14.9907931 15.2234483,14.5981034 15.2234483,14.3345172 C15.2234483,14.0722759 15.4870345,13.9418276 15.6161379,13.6782414 C15.7492759,13.416 16.2078621,12.761069 16.7982414,13.0233103 C16.7982414,13.0233103 17.3213793,12.9587586 17.5177241,12.8928621 C17.714069,12.8269655 18.2385517,12.6319655 18.4981034,12.5001724 C18.7603448,12.3683793 19.413931,12.3065172 19.413931,12.3065172 C19.413931,12.3065172 19.9303448,12.5122759 20.1266897,12.5122759 C20.3230345,12.5122759 20.9631724,12.3979655 20.9631724,12.3979655 C20.9631724,12.3979655 21.2590345,13.3487586 21.2590345,13.5464483 C21.2590345,13.7441379 21.4553793,13.9391379 21.7848621,14.070931 C22.1089655,14.204069 23.6192069,14.5335517 24.2754828,14.0077241 Z M31.8186207,26.8656207 C31.8186207,27.0619655 31.7527241,27.5877931 31.6868276,27.8500345 C31.6182414,28.1122759 31.4891379,28.5722069 31.4245862,28.8317586 C31.3586897,29.0953448 31.0305517,29.6198276 30.8355517,29.7516207 C30.6392069,29.8834138 30.3097241,30.2774483 30.1147241,30.342 C29.9183793,30.4078966 29.7852414,29.882069 29.8511379,29.6198276 C29.9183793,29.3575862 30.2451724,28.6367586 30.2451724,28.6367586 C30.2451724,28.6367586 30.311069,28.244069 30.3756207,27.9804828 C30.4428621,27.7195862 31.2295862,27.3914483 31.2295862,27.3914483 L31.7554138,26.4070345 C31.7527241,26.4056897 31.8186207,26.6706207 31.8186207,26.8656207 Z M2.70982759,22.9575517 C2.79455172,22.979069 2.91558621,23.040931 3.08637931,23.1928966 C3.33382759,23.408069 3.48041379,23.5183448 3.80855172,23.6514828 C4.13534483,23.7846207 4.26713793,23.9782759 4.66117241,24.1759655 C5.0552069,24.3736552 4.92475862,24.2432069 5.44789655,24.8322414 C5.97372414,25.4212759 5.90782759,25.4212759 6.03827586,25.7507586 C6.16872414,26.0802414 6.36641379,26.4056897 6.4982069,26.6047241 C6.63,26.801069 7.02268966,26.9315172 7.21903448,27.0633103 C7.41537931,27.1951034 7.74351724,27.3255517 7.93986207,27.3255517 C8.13755172,27.3255517 8.72793103,27.915931 9.05606897,27.9804828 C9.3842069,28.0477241 9.3842069,28.704 9.3842069,28.704 L9.05606897,29.6211724 L8.79248276,30.6042414 L9.05606897,31.3909655 C9.05606897,31.3909655 8.66068966,31.7204483 8.40113793,31.7204483 C8.15906897,31.7204483 8.07703448,31.8737586 7.81210345,31.8011379 C5.31072414,29.4651724 3.49655172,26.4097241 2.70982759,22.9575517 Z" id="globe"></path>
                    </g>
                </g>
            </g>
        </g>
    </g>
</svg>