<?xml version="1.0" encoding="UTF-8"?>
<svg width="20px" height="19px" viewBox="0 0 20 19" version="1.1" xmlns="http://www.w3.org/2000/svg" xmlns:xlink="http://www.w3.org/1999/xlink">
    <!-- Generator: Sketch 42 (36781) - http://www.bohemiancoding.com/sketch -->
    <title>user-icon</title>
    <desc>Created with Sketch.</desc>
    <defs></defs>
    <g id="Page-1" stroke="none" stroke-width="1" fill="none" fill-rule="evenodd">
        <g id="overlay-open" transform="translate(-448.000000, -318.000000)" fill="#4A4A4A">
            <g id="overlay" transform="translate(431.000000, 302.000000)">
                <g id="overlay-content" transform="translate(17.000000, 16.000000)">
                    <g id="user-icon" transform="translate(0.666667, 0.208333)">
                        <path d="M9.33333333,9.33333333 C11.907,9.33333333 14,7.24033333 14,4.66666667 C14,2.093 11.907,-5.68434189e-14 9.33333333,-5.68434189e-14 C6.75966667,-5.68434189e-14 4.66666667,2.093 4.66666667,4.66666667 C4.66666667,7.24033333 6.75966667,9.33333333 9.33333333,9.33333333 Z" id="Shape"></path>
                        <path d="M9.33333333,10.5 C3.83833333,10.5 2.27373675e-13,13.3781667 2.27373675e-13,17.5 L2.27373675e-13,18.6666667 L18.6666667,18.6666667 L18.6666667,17.5 C18.6666667,13.3781667 14.8283333,10.5 9.33333333,10.5 Z" id="Shape"></path>
                    </g>
                </g>
            </g>
        </g>
    </g>
</svg>