<?xml version="1.0" encoding="UTF-8"?>
<svg width="88px" height="88px" viewBox="0 0 88 88" version="1.1" xmlns="http://www.w3.org/2000/svg" xmlns:xlink="http://www.w3.org/1999/xlink">
    <!-- Generator: Sketch 42 (36781) - http://www.bohemiancoding.com/sketch -->
    <title>circle-check</title>
    <desc>Created with Sketch.</desc>
    <defs></defs>
    <g id="Page-1" stroke="none" stroke-width="1" fill="none" fill-rule="evenodd">
        <g id="desktop-success" transform="translate(-415.000000, -415.000000)" fill="#4990E2">
            <g id="circle-check" transform="translate(415.000000, 415.000000)">
                <g id="Layer_1">
                    <path d="M44,0 C19.7,0 0,19.699 0,44 C0,68.301 19.7,88 44,88 C68.3,88 88,68.301 88,44 C88,19.699 68.3,0 44,0 Z M44,80 C24.118,80 8,63.882 8,44 C8,24.118 24.118,8 44,8 C63.882,8 80,24.118 80,44 C80,63.882 63.882,80 44,80 Z M54.627,33.17 L40.484,47.312 L34.828,41.656 C33.266,40.094 30.734,40.094 29.171,41.656 C27.609,43.218 27.609,45.751 29.171,47.314 L37.655,55.795 C39.217,57.357 41.751,57.357 43.312,55.795 L60.283,38.825 C61.845,37.263 61.847,34.731 60.284,33.168 C58.723,31.609 56.189,31.609 54.627,33.17 Z" id="circle-check"></path>
                </g>
            </g>
        </g>
    </g>
</svg>