<?xml version="1.0" encoding="UTF-8"?>
<svg width="19px" height="12px" viewBox="0 0 19 12" version="1.1" xmlns="http://www.w3.org/2000/svg" xmlns:xlink="http://www.w3.org/1999/xlink">
    <!-- Generator: Sketch 42 (36781) - http://www.bohemiancoding.com/sketch -->
    <title>email</title>
    <desc>Created with Sketch.</desc>
    <defs></defs>
    <g id="Page-1" stroke="none" stroke-width="1" fill="none" fill-rule="evenodd">
        <g id="desktop" transform="translate(-936.000000, -264.000000)" fill-rule="nonzero" fill="#FFFFFF">
            <path d="M936.827589,264 C936.379843,264 936,264.379843 936,264.827583 L936,275.172461 C936,275.620207 936.379843,276.00005 936.827589,276.00005 L953.379368,276.00005 C953.827114,276.00005 954.206957,275.620207 954.206957,275.172461 L954.206957,264.827583 C954.206957,264.379843 953.827114,264 953.379368,264 L936.827589,264 Z M937.364229,265.241377 L952.842728,265.241377 L945.103478,271.280186 L937.364229,265.241375 L937.364229,265.241377 Z M937.241383,266.71552 L944.722012,272.553908 C944.946313,272.728629 945.260644,272.728629 945.484945,272.553908 L952.965573,266.71552 L952.965573,274.758667 L937.241383,274.758667 L937.241383,266.71552 Z" id="email"></path>
        </g>
    </g>
</svg>